<svg xmlns="http://www.w3.org/2000/svg" xmlns:xlink="http://www.w3.org/1999/xlink" width="2000" zoomAndPan="magnify" viewBox="0 0 1500 1499.999933" height="2000" preserveAspectRatio="xMidYMid meet" version="1.0"><defs><g></g><clipPath id="91c7ee0928"><path d="M 0.441406 80 L 341 80 L 341 451.121094 L 0.441406 451.121094 Z M 0.441406 80 " clip-rule="nonzero"></path></clipPath><clipPath id="dfb3e85683"><rect x="0" width="341" y="0" height="372"></rect></clipPath><clipPath id="2c413132d8"><path d="M 101 0.878906 L 441.558594 0.878906 L 441.558594 372 L 101 372 Z M 101 0.878906 " clip-rule="nonzero"></path></clipPath><clipPath id="f3f3f6d3c0"><rect x="0" width="341" y="0" height="372"></rect></clipPath><clipPath id="b54fbcf213"><rect x="0" width="442" y="0" height="452"></rect></clipPath></defs><rect x="-150" width="1800" fill="#ffffff" y="-149.999993" height="1799.99992" fill-opacity="1"></rect><rect x="-150" width="1800" fill="#ffffff" y="-149.999993" height="1799.99992" fill-opacity="1"></rect><g transform="matrix(1, 0, 0, 1, 529, 524)"><g clip-path="url(#b54fbcf213)"><g clip-path="url(#91c7ee0928)"><g transform="matrix(1, 0, 0, 1, 0, 80)"><g clip-path="url(#dfb3e85683)"><g fill="#000000" fill-opacity="1"><g transform="translate(150.965894, 285.340991)"><g><path d="M -42.421875 -89.046875 C -42.003906 -88.867188 -41.671875 -88.617188 -41.421875 -88.296875 C -39.035156 -84.003906 -35.664062 -80.109375 -31.3125 -76.609375 C -26.957031 -73.109375 -21.390625 -70.832031 -14.609375 -69.78125 C -7.828125 -68.726562 0.582031 -70.015625 10.625 -73.640625 C 18.414062 -76.492188 25.546875 -80.503906 32.015625 -85.671875 C 32.648438 -86.179688 33.378906 -86.890625 34.203125 -87.796875 C 35.304688 -88.679688 36.09375 -89.316406 36.5625 -89.703125 C 43.800781 -96.503906 49.207031 -103.976562 52.78125 -112.125 C 56.351562 -120.28125 57.925781 -128.265625 57.5 -136.078125 C 57.082031 -143.890625 54.476562 -150.796875 49.6875 -156.796875 C 45.269531 -162.316406 39.5625 -166.222656 32.5625 -168.515625 C 25.5625 -170.816406 17.894531 -171.351562 9.5625 -170.125 L -75.296875 -157.421875 C -84.785156 -156.035156 -93.550781 -156.65625 -101.59375 -159.28125 C -109.644531 -161.90625 -116.191406 -166.378906 -121.234375 -172.703125 C -121.359375 -172.847656 -121.46875 -173.144531 -121.5625 -173.59375 C -121.53125 -173.882812 -121.351562 -174.15625 -121.03125 -174.40625 L -117.25 -177.4375 C -116.625 -177.9375 -116.0625 -177.875 -115.5625 -177.25 C -106.257812 -167.851562 -93.640625 -164.347656 -77.703125 -166.734375 L 7.15625 -179.46875 C 16.53125 -180.988281 25.269531 -180.394531 33.375 -177.6875 C 41.476562 -174.976562 48.050781 -170.472656 53.09375 -164.171875 C 58.507812 -157.378906 61.503906 -149.492188 62.078125 -140.515625 C 62.660156 -131.546875 60.890625 -122.441406 56.765625 -113.203125 C 52.640625 -103.960938 46.410156 -95.5 38.078125 -87.8125 C 37.734375 -87.269531 37.082031 -86.617188 36.125 -85.859375 L 35.671875 -85.5 C 34.878906 -84.863281 34.164062 -84.289062 33.53125 -83.78125 C 26.894531 -78.488281 19.523438 -74.285156 11.421875 -71.171875 C -0.609375 -66.484375 -12.109375 -65.179688 -23.078125 -67.265625 C -34.054688 -69.359375 -42.757812 -74.429688 -49.1875 -82.484375 C -49.6875 -83.109375 -49.617188 -83.675781 -48.984375 -84.1875 L -43.3125 -88.71875 C -43 -88.976562 -42.703125 -89.085938 -42.421875 -89.046875 Z M 66.9375 -87.59375 C 82.15625 -92.5 95.863281 -92.320312 108.0625 -87.0625 C 108.476562 -86.882812 108.726562 -86.570312 108.8125 -86.125 C 108.925781 -85.6875 108.820312 -85.335938 108.5 -85.078125 L 105.671875 -82.8125 C 105.191406 -82.4375 104.679688 -82.425781 104.140625 -82.78125 C 94.492188 -89.03125 82.363281 -89.816406 67.75 -85.140625 L 67.09375 -84.984375 L 66.421875 -84.828125 C 65.816406 -84.617188 65.21875 -84.40625 64.625 -84.1875 L 64.390625 -84 C 56.585938 -81.125 49.515625 -77.023438 43.171875 -71.703125 C 42.703125 -71.328125 41.910156 -70.695312 40.796875 -69.8125 C 39.859375 -69.0625 39.070312 -68.429688 38.4375 -67.921875 C 30.800781 -60.015625 25.128906 -51.09375 21.421875 -41.15625 C 17.710938 -31.21875 16.789062 -22.335938 18.65625 -14.515625 C 18.882812 -13.910156 18.757812 -13.414062 18.28125 -13.03125 L 15.921875 -11.140625 C 15.441406 -10.765625 15 -10.675781 14.59375 -10.875 C 14.175781 -11.0625 13.925781 -11.375 13.84375 -11.8125 C 12.101562 -20.78125 13.335938 -30.5625 17.546875 -41.15625 C 21.753906 -51.757812 28.132812 -61.25 36.6875 -69.625 L 36.921875 -69.8125 C 37.390625 -70.1875 38.046875 -70.832031 38.890625 -71.75 L 39.34375 -72.125 C 40.300781 -72.882812 41.015625 -73.453125 41.484375 -73.828125 C 48.117188 -79.128906 55.488281 -83.335938 63.59375 -86.453125 C 63.914062 -86.703125 64.253906 -86.84375 64.609375 -86.875 C 64.972656 -86.914062 65.3125 -87.0625 65.625 -87.3125 C 66.0625 -87.40625 66.5 -87.5 66.9375 -87.59375 Z M 66.9375 -87.59375 "></path></g></g></g></g></g></g><g clip-path="url(#2c413132d8)"><g transform="matrix(1, 0, 0, 1, 101, 0.000000000000113687)"><g clip-path="url(#f3f3f6d3c0)"><g fill="#000000" fill-opacity="1"><g transform="translate(190.018333, 86.655617)"><g><path d="M 42.421875 89.046875 C 42.003906 88.867188 41.671875 88.617188 41.421875 88.296875 C 39.035156 84.003906 35.664062 80.109375 31.3125 76.609375 C 26.957031 73.109375 21.390625 70.832031 14.609375 69.78125 C 7.828125 68.726562 -0.582031 70.015625 -10.625 73.640625 C -18.414062 76.492188 -25.546875 80.503906 -32.015625 85.671875 C -32.648438 86.179688 -33.378906 86.890625 -34.203125 87.796875 C -35.304688 88.679688 -36.09375 89.316406 -36.5625 89.703125 C -43.800781 96.503906 -49.207031 103.976562 -52.78125 112.125 C -56.351562 120.28125 -57.925781 128.265625 -57.5 136.078125 C -57.082031 143.890625 -54.476562 150.796875 -49.6875 156.796875 C -45.269531 162.316406 -39.5625 166.222656 -32.5625 168.515625 C -25.5625 170.816406 -17.894531 171.351562 -9.5625 170.125 L 75.296875 157.421875 C 84.785156 156.035156 93.550781 156.65625 101.59375 159.28125 C 109.644531 161.90625 116.191406 166.378906 121.234375 172.703125 C 121.359375 172.847656 121.46875 173.144531 121.5625 173.59375 C 121.53125 173.882812 121.351562 174.15625 121.03125 174.40625 L 117.25 177.4375 C 116.625 177.9375 116.0625 177.875 115.5625 177.25 C 106.257812 167.851562 93.640625 164.347656 77.703125 166.734375 L -7.15625 179.46875 C -16.53125 180.988281 -25.269531 180.394531 -33.375 177.6875 C -41.476562 174.976562 -48.050781 170.472656 -53.09375 164.171875 C -58.507812 157.378906 -61.503906 149.492188 -62.078125 140.515625 C -62.660156 131.546875 -60.890625 122.441406 -56.765625 113.203125 C -52.640625 103.960938 -46.410156 95.5 -38.078125 87.8125 C -37.734375 87.269531 -37.082031 86.617188 -36.125 85.859375 L -35.671875 85.5 C -34.878906 84.863281 -34.164062 84.289062 -33.53125 83.78125 C -26.894531 78.488281 -19.523438 74.285156 -11.421875 71.171875 C 0.609375 66.484375 12.109375 65.179688 23.078125 67.265625 C 34.054688 69.359375 42.757812 74.429688 49.1875 82.484375 C 49.6875 83.109375 49.617188 83.675781 48.984375 84.1875 L 43.3125 88.71875 C 43 88.976562 42.703125 89.085938 42.421875 89.046875 Z M -66.9375 87.59375 C -82.15625 92.5 -95.863281 92.320312 -108.0625 87.0625 C -108.476562 86.882812 -108.726562 86.570312 -108.8125 86.125 C -108.925781 85.6875 -108.820312 85.335938 -108.5 85.078125 L -105.671875 82.8125 C -105.191406 82.4375 -104.679688 82.425781 -104.140625 82.78125 C -94.492188 89.03125 -82.363281 89.816406 -67.75 85.140625 L -67.09375 84.984375 L -66.421875 84.828125 C -65.816406 84.617188 -65.21875 84.40625 -64.625 84.1875 L -64.390625 84 C -56.585938 81.125 -49.515625 77.023438 -43.171875 71.703125 C -42.703125 71.328125 -41.910156 70.695312 -40.796875 69.8125 C -39.859375 69.0625 -39.070312 68.429688 -38.4375 67.921875 C -30.800781 60.015625 -25.128906 51.09375 -21.421875 41.15625 C -17.710938 31.21875 -16.789062 22.335938 -18.65625 14.515625 C -18.882812 13.910156 -18.757812 13.414062 -18.28125 13.03125 L -15.921875 11.140625 C -15.441406 10.765625 -15 10.675781 -14.59375 10.875 C -14.175781 11.0625 -13.925781 11.375 -13.84375 11.8125 C -12.101562 20.78125 -13.335938 30.5625 -17.546875 41.15625 C -21.753906 51.757812 -28.132812 61.25 -36.6875 69.625 L -36.921875 69.8125 C -37.390625 70.1875 -38.046875 70.832031 -38.890625 71.75 L -39.34375 72.125 C -40.300781 72.882812 -41.015625 73.453125 -41.484375 73.828125 C -48.117188 79.128906 -55.488281 83.335938 -63.59375 86.453125 C -63.914062 86.703125 -64.253906 86.84375 -64.609375 86.875 C -64.972656 86.914062 -65.3125 87.0625 -65.625 87.3125 C -66.0625 87.40625 -66.5 87.5 -66.9375 87.59375 Z M -66.9375 87.59375 "></path></g></g></g></g></g></g></g></g></svg>