<svg xmlns="http://www.w3.org/2000/svg" xmlns:xlink="http://www.w3.org/1999/xlink" width="100%" viewBox="395 593 713 313" height="100%" preserveAspectRatio="xMidYMid meet" version="1.0"><defs><g></g><clipPath id="53aa18c278"><path d="M 567 0.0390625 L 712.601562 0.0390625 L 712.601562 313 L 567 313 Z M 567 0.0390625 " clip-rule="nonzero"></path></clipPath><clipPath id="2806ef81c8"><rect x="0" width="146" y="0" height="313"></rect></clipPath><clipPath id="616a531387"><path d="M 397 0.0390625 L 587 0.0390625 L 587 313 L 397 313 Z M 397 0.0390625 " clip-rule="nonzero"></path></clipPath><clipPath id="42b3b7d228"><rect x="0" width="190" y="0" height="313"></rect></clipPath><clipPath id="16d1537e42"><path d="M 261 0.0390625 L 408 0.0390625 L 408 313 L 261 313 Z M 261 0.0390625 " clip-rule="nonzero"></path></clipPath><clipPath id="498212fdef"><rect x="0" width="147" y="0" height="313"></rect></clipPath><clipPath id="b7a523cb23"><path d="M 129 0.0390625 L 287 0.0390625 L 287 313 L 129 313 Z M 129 0.0390625 " clip-rule="nonzero"></path></clipPath><clipPath id="7ae2036000"><rect x="0" width="158" y="0" height="313"></rect></clipPath><clipPath id="58971347f9"><path d="M 0.761719 0.0390625 L 141 0.0390625 L 141 313 L 0.761719 313 Z M 0.761719 0.0390625 " clip-rule="nonzero"></path></clipPath><clipPath id="c5fc151deb"><rect x="0" width="141" y="0" height="313"></rect></clipPath><clipPath id="783fffdf3a"><rect x="0" width="713" y="0" height="313"></rect></clipPath></defs><g transform="matrix(1, 0, 0, 1, 395, 593)"><g clip-path="url(#783fffdf3a)"><g clip-path="url(#53aa18c278)"><g transform="matrix(1, 0, 0, 1, 567, 0.000000000000113687)"><g clip-path="url(#2806ef81c8)"><g fill="#14120F" fill-opacity="1"><g transform="translate(0.841762, 215.21561)"><g><path d="M 22.734375 1.078125 C 22.367188 1.078125 22.097656 0.988281 21.921875 0.8125 C 21.742188 0.632812 21.65625 0.363281 21.65625 0 L 21.65625 -188.09375 C 21.65625 -189 22.015625 -189.453125 22.734375 -189.453125 L 137.484375 -189.453125 C 138.203125 -189.453125 138.5625 -189 138.5625 -188.09375 L 138.5625 -181.875 C 138.5625 -181.507812 138.382812 -181.144531 138.03125 -180.78125 C 137.84375 -180.78125 137.660156 -180.78125 137.484375 -180.78125 C 137.304688 -180.78125 137.125 -180.78125 136.9375 -180.78125 C 132.96875 -182.769531 128.546875 -184.171875 123.671875 -184.984375 C 118.804688 -185.796875 112.765625 -186.335938 105.546875 -186.609375 C 98.328125 -186.878906 89.21875 -187.015625 78.21875 -187.015625 L 29.234375 -187.015625 L 29.234375 -95.265625 L 97.96875 -95.265625 C 98.6875 -95.265625 99.046875 -94.90625 99.046875 -94.1875 C 99.046875 -93.28125 98.6875 -92.828125 97.96875 -92.828125 L 29.234375 -92.828125 L 29.234375 -1.078125 L 78.21875 -1.078125 C 89.21875 -1.078125 98.328125 -1.210938 105.546875 -1.484375 C 112.765625 -1.753906 118.804688 -2.335938 123.671875 -3.234375 C 128.546875 -4.140625 132.96875 -5.5 136.9375 -7.3125 C 137.300781 -7.488281 137.664062 -7.488281 138.03125 -7.3125 C 138.382812 -7.125 138.5625 -6.757812 138.5625 -6.21875 L 138.5625 0 C 138.5625 0.71875 138.203125 1.078125 137.484375 1.078125 L 28.140625 1.078125 C 28.140625 1.078125 27.238281 1.078125 25.4375 1.078125 C 23.632812 1.078125 22.734375 1.078125 22.734375 1.078125 Z M 22.734375 1.078125 "></path></g></g></g></g></g></g><g clip-path="url(#616a531387)"><g transform="matrix(1, 0, 0, 1, 397, 0.000000000000113687)"><g clip-path="url(#42b3b7d228)"><g fill="#14120F" fill-opacity="1"><g transform="translate(0.639684, 215.21561)"><g><path d="M 22.734375 1.078125 C 22.367188 1.078125 22.097656 0.988281 21.921875 0.8125 C 21.742188 0.632812 21.65625 0.363281 21.65625 0 L 21.65625 -188.09375 C 21.65625 -189 22.015625 -189.453125 22.734375 -189.453125 L 81.46875 -189.453125 C 94.632812 -189.085938 106.898438 -186.378906 118.265625 -181.328125 C 129.628906 -176.273438 139.640625 -169.414062 148.296875 -160.75 C 156.960938 -152.09375 163.6875 -142.082031 168.46875 -130.71875 C 173.25 -119.351562 175.640625 -107.175781 175.640625 -94.1875 C 175.640625 -81.007812 173.25 -68.738281 168.46875 -57.375 C 163.6875 -46.007812 156.960938 -35.992188 148.296875 -27.328125 C 139.640625 -18.671875 129.628906 -11.859375 118.265625 -6.890625 C 106.898438 -1.929688 94.632812 0.722656 81.46875 1.078125 L 28.140625 1.078125 C 28.140625 1.078125 27.238281 1.078125 25.4375 1.078125 C 23.632812 1.078125 22.734375 1.078125 22.734375 1.078125 Z M 78.75 -187.015625 L 29.234375 -187.015625 L 29.234375 -1.078125 L 81.1875 -1.078125 C 93.28125 -1.441406 104.554688 -4.101562 115.015625 -9.0625 C 125.484375 -14.03125 134.597656 -20.753906 142.359375 -29.234375 C 150.117188 -37.710938 156.207031 -47.453125 160.625 -58.453125 C 165.039062 -69.460938 167.25 -81.375 167.25 -94.1875 C 167.25 -106.8125 165.039062 -118.671875 160.625 -129.765625 C 156.207031 -140.867188 150.117188 -150.660156 142.359375 -159.140625 C 134.597656 -167.617188 125.484375 -174.289062 115.015625 -179.15625 C 104.554688 -184.03125 93.28125 -186.648438 81.1875 -187.015625 Z M 78.75 -187.015625 "></path></g></g></g></g></g></g><g clip-path="url(#16d1537e42)"><g transform="matrix(1, 0, 0, 1, 261, 0.000000000000113687)"><g clip-path="url(#498212fdef)"><g fill="#14120F" fill-opacity="1"><g transform="translate(1.472198, 215.21561)"><g><path d="M 22.734375 1.078125 C 22.367188 1.078125 22.097656 0.988281 21.921875 0.8125 C 21.742188 0.632812 21.65625 0.363281 21.65625 0 L 21.65625 -188.09375 C 21.65625 -189 22.015625 -189.453125 22.734375 -189.453125 L 137.484375 -189.453125 C 138.203125 -189.453125 138.5625 -189 138.5625 -188.09375 L 138.5625 -181.875 C 138.5625 -181.507812 138.382812 -181.144531 138.03125 -180.78125 C 137.84375 -180.78125 137.660156 -180.78125 137.484375 -180.78125 C 137.304688 -180.78125 137.125 -180.78125 136.9375 -180.78125 C 132.96875 -182.769531 128.546875 -184.171875 123.671875 -184.984375 C 118.804688 -185.796875 112.765625 -186.335938 105.546875 -186.609375 C 98.328125 -186.878906 89.21875 -187.015625 78.21875 -187.015625 L 29.234375 -187.015625 L 29.234375 -95.265625 L 97.96875 -95.265625 C 98.6875 -95.265625 99.046875 -94.90625 99.046875 -94.1875 C 99.046875 -93.28125 98.6875 -92.828125 97.96875 -92.828125 L 29.234375 -92.828125 L 29.234375 -1.078125 L 78.21875 -1.078125 C 89.21875 -1.078125 98.328125 -1.210938 105.546875 -1.484375 C 112.765625 -1.753906 118.804688 -2.335938 123.671875 -3.234375 C 128.546875 -4.140625 132.96875 -5.5 136.9375 -7.3125 C 137.300781 -7.488281 137.664062 -7.488281 138.03125 -7.3125 C 138.382812 -7.125 138.5625 -6.757812 138.5625 -6.21875 L 138.5625 0 C 138.5625 0.71875 138.203125 1.078125 137.484375 1.078125 L 28.140625 1.078125 C 28.140625 1.078125 27.238281 1.078125 25.4375 1.078125 C 23.632812 1.078125 22.734375 1.078125 22.734375 1.078125 Z M 22.734375 1.078125 "></path></g></g></g></g></g></g><g clip-path="url(#b7a523cb23)"><g transform="matrix(1, 0, 0, 1, 129, 0.000000000000113687)"><g clip-path="url(#7ae2036000)"><g fill="#14120F" fill-opacity="1"><g transform="translate(0.503997, 215.21561)"><g><path d="M 135.3125 -189.453125 C 136.039062 -189.453125 136.40625 -189 136.40625 -188.09375 L 136.40625 -57.375 C 136.40625 -56.289062 136.40625 -55.300781 136.40625 -54.40625 C 136.21875 -53.5 136.125 -52.503906 136.125 -51.421875 C 135.945312 -50.515625 135.769531 -49.613281 135.59375 -48.71875 C 134.144531 -39.15625 130.710938 -30.628906 125.296875 -23.140625 C 119.890625 -15.648438 113.035156 -9.738281 104.734375 -5.40625 C 96.429688 -1.082031 87.5 1.078125 77.9375 1.078125 C 67.113281 1.078125 57.28125 -1.535156 48.4375 -6.765625 C 39.601562 -11.992188 32.566406 -19.03125 27.328125 -27.875 C 22.097656 -36.71875 19.484375 -46.550781 19.484375 -57.375 L 19.484375 -188.09375 C 19.484375 -189 19.84375 -189.453125 20.5625 -189.453125 L 25.984375 -189.453125 C 26.703125 -189.453125 27.0625 -189 27.0625 -188.09375 L 27.0625 -57.375 C 27.0625 -47.445312 29.453125 -38.425781 34.234375 -30.3125 C 39.015625 -22.195312 45.460938 -15.742188 53.578125 -10.953125 C 61.703125 -6.171875 70.726562 -3.78125 80.65625 -3.78125 C 89.3125 -3.78125 97.425781 -5.765625 105 -9.734375 C 112.582031 -13.710938 118.851562 -19.082031 123.8125 -25.84375 C 128.78125 -32.613281 131.984375 -40.414062 133.421875 -49.25 C 133.609375 -49.976562 133.703125 -50.703125 133.703125 -51.421875 C 133.703125 -51.597656 133.703125 -51.6875 133.703125 -51.6875 C 133.878906 -52.59375 133.96875 -53.5 133.96875 -54.40625 C 133.96875 -55.476562 133.96875 -56.46875 133.96875 -57.375 L 133.96875 -188.09375 C 133.96875 -189 134.414062 -189.453125 135.3125 -189.453125 Z M 135.3125 -189.453125 "></path></g></g></g></g></g></g><g clip-path="url(#58971347f9)"><g transform="matrix(1, 0, 0, 1, 0, 0.000000000000113687)"><g clip-path="url(#c5fc151deb)"><g fill="#14120F" fill-opacity="1"><g transform="translate(1.134455, 215.21561)"><g><path d="M 20.03125 -85.796875 C 20.207031 -85.429688 20.296875 -85.066406 20.296875 -84.703125 C 19.578125 -80.378906 19.757812 -75.78125 20.84375 -70.90625 C 21.925781 -66.03125 24.539062 -61.335938 28.6875 -56.828125 C 32.832031 -52.316406 39.414062 -48.53125 48.4375 -45.46875 C 55.476562 -43.125 62.695312 -41.953125 70.09375 -41.953125 C 70.8125 -41.953125 71.710938 -42.039062 72.796875 -42.21875 C 74.066406 -42.21875 74.972656 -42.21875 75.515625 -42.21875 C 84.347656 -42.9375 92.28125 -45.144531 99.3125 -48.84375 C 106.351562 -52.550781 111.90625 -57.242188 115.96875 -62.921875 C 120.03125 -68.609375 122.0625 -74.878906 122.0625 -81.734375 C 122.0625 -88.046875 120.253906 -93.953125 116.640625 -99.453125 C 113.035156 -104.960938 107.984375 -109.609375 101.484375 -113.390625 L 35.1875 -151.828125 C 27.789062 -156.160156 22.015625 -161.484375 17.859375 -167.796875 C 13.710938 -174.109375 11.640625 -180.875 11.640625 -188.09375 C 11.640625 -188.269531 11.726562 -188.539062 11.90625 -188.90625 C 12.082031 -189.082031 12.351562 -189.171875 12.71875 -189.171875 L 17.046875 -189.171875 C 17.773438 -189.171875 18.140625 -188.8125 18.140625 -188.09375 C 19.398438 -176.363281 26.253906 -166.890625 38.703125 -159.671875 L 105.015625 -121.25 C 112.410156 -117.09375 118.179688 -111.8125 122.328125 -105.40625 C 126.472656 -99.007812 128.546875 -92.203125 128.546875 -84.984375 C 128.546875 -77.222656 126.242188 -70.050781 121.640625 -63.46875 C 117.046875 -56.882812 110.734375 -51.515625 102.703125 -47.359375 C 94.679688 -43.210938 85.617188 -40.78125 75.515625 -40.0625 C 74.972656 -39.875 74.160156 -39.78125 73.078125 -39.78125 L 72.53125 -39.78125 C 71.625 -39.78125 70.8125 -39.78125 70.09375 -39.78125 C 62.519531 -39.78125 55.03125 -40.953125 47.625 -43.296875 C 36.625 -46.722656 27.875 -52.222656 21.375 -59.796875 C 14.882812 -67.378906 11.640625 -75.773438 11.640625 -84.984375 C 11.640625 -85.703125 12 -86.0625 12.71875 -86.0625 L 19.21875 -86.0625 C 19.570312 -86.0625 19.84375 -85.972656 20.03125 -85.796875 Z M 95.53125 -23.8125 C 108.882812 -18.757812 118.359375 -11.003906 123.953125 -0.546875 C 124.128906 -0.179688 124.128906 0.179688 123.953125 0.546875 C 123.773438 0.898438 123.503906 1.078125 123.140625 1.078125 L 119.890625 1.078125 C 119.347656 1.078125 118.988281 0.804688 118.8125 0.265625 C 115.5625 -9.472656 107.53125 -16.78125 94.71875 -21.65625 L 94.1875 -21.921875 L 93.640625 -22.1875 C 93.097656 -22.375 92.554688 -22.554688 92.015625 -22.734375 L 91.75 -22.734375 C 84.707031 -25.078125 77.488281 -26.160156 70.09375 -25.984375 C 69.550781 -25.984375 68.648438 -25.984375 67.390625 -25.984375 C 66.304688 -25.984375 65.40625 -25.984375 64.6875 -25.984375 C 54.9375 -24.722656 46 -21.65625 37.875 -16.78125 C 29.757812 -11.90625 24.171875 -6.222656 21.109375 0.265625 C 20.929688 0.804688 20.570312 1.078125 20.03125 1.078125 L 17.328125 1.078125 C 16.785156 1.078125 16.421875 0.898438 16.234375 0.546875 C 16.054688 0.179688 16.054688 -0.179688 16.234375 -0.546875 C 20.023438 -7.753906 26.335938 -13.882812 35.171875 -18.9375 C 44.015625 -23.988281 53.757812 -27.054688 64.40625 -28.140625 L 64.6875 -28.140625 C 65.226562 -28.140625 66.039062 -28.234375 67.125 -28.421875 L 67.65625 -28.421875 C 68.738281 -28.421875 69.550781 -28.421875 70.09375 -28.421875 C 77.675781 -28.421875 85.164062 -27.25 92.5625 -24.90625 C 92.914062 -24.90625 93.226562 -24.8125 93.5 -24.625 C 93.769531 -24.445312 94.085938 -24.359375 94.453125 -24.359375 C 94.816406 -24.179688 95.175781 -24 95.53125 -23.8125 Z M 95.53125 -23.8125 "></path></g></g></g></g></g></g></g></g></svg>